<svg width="254" height="70" viewBox="0 0 254 70" fill="none" xmlns="http://www.w3.org/2000/svg">
<circle cx="35" cy="35" r="35" fill="url(#paint0_linear_6_1)"/>
<path d="M61.3483 28C65.0132 28 54.1833 41.2263 54.1833 41.2263L51.8 32.4578C51.8 32.4578 57.6833 28 61.3483 28Z" fill="#0075FF"/>
<path d="M11.4177 45.2252C7.83255 45.9857 15.6822 30.8 15.6822 30.8L19.8332 38.8831C19.8332 38.8831 15.0029 44.4647 11.4177 45.2252Z" fill="#0075FF"/>
<path d="M56 36.4C56 47.998 46.598 53.2 35 53.2C23.402 53.2 14 47.998 14 36.4C14 24.802 23.402 15.4 35 15.4C46.598 15.4 56 24.802 56 36.4Z" fill="#0075FF"/>
<path d="M54.5 38.8889C54.5 43.2568 52.465 46.3746 49.0621 48.4725C45.5837 50.6169 40.6419 51.7 35 51.7C29.3581 51.7 24.4163 50.6169 20.9379 48.4725C17.535 46.3746 15.5 43.2568 15.5 38.8889C15.5 35.4943 15.7645 32.6241 16.7361 30.2999C17.6734 28.0578 19.3051 26.2383 22.2801 24.9908C24.5521 24.0381 26.5402 24.4617 28.5691 25.2673C29.0816 25.4708 29.5849 25.6939 30.0999 25.9245C30.1471 25.9456 30.1944 25.9668 30.242 25.9882C30.7036 26.1951 31.1809 26.409 31.649 26.6002C32.6636 27.0147 33.8113 27.4 35 27.4C36.1887 27.4 37.3364 27.0147 38.351 26.6002C38.8191 26.409 39.2963 26.1951 39.7579 25.9882C39.8055 25.9669 39.8529 25.9456 39.9001 25.9245C40.4151 25.6939 40.9184 25.4708 41.4309 25.2673C43.4598 24.4617 45.4479 24.0381 47.7199 24.9908C50.6949 26.2383 52.3266 28.0578 53.2639 30.2999C54.2355 32.6241 54.5 35.4943 54.5 38.8889Z" fill="white" stroke="#0075FF" stroke-width="3" stroke-linejoin="round"/>
<circle cx="25.2" cy="35" r="2.8" fill="black"/>
<circle cx="44.8" cy="35" r="2.8" fill="black"/>
<path d="M35 35C37.3196 35 38.5 36.4 40.6 37.8C40.6 37.8 36.8338 41.3 35 41.3C33.1662 41.3 29.4 37.8 29.4 37.8C31.5 36.4 32.6804 35 35 35Z" fill="#FF9900"/>
<path d="M80.68 28V10.312H85.072L89.632 21.064L94.192 10.312H98.56V28H94.384V18.28L90.688 27.232H88.576L84.856 18.28V28H80.68ZM104.098 28L101.434 25.336V12.976L104.098 10.312H114.466L117.13 12.976V25.336L114.466 28H104.098ZM106.786 24.592H111.826L112.666 23.752V14.56L111.778 13.72H106.786L105.922 14.56V23.752L106.786 24.592ZM122.192 28L119.528 25.336V12.976L122.192 10.312H131.288L133.976 12.976V16.552H129.608V14.56L128.744 13.72H124.88L124.016 14.56V23.752L124.88 24.592H128.888L129.776 23.752V21.736H134.12V25.336L131.456 28H122.192ZM136.086 28V10.312H140.574V17.344L146.046 10.312H151.014L144.774 18.016L151.014 28H146.238L142.254 21.16L140.574 23.224V28H136.086ZM152.703 28V10.312H166.143V13.96H157.191V17.224H165.255V20.608H157.191V24.352H166.143V28H152.703ZM169.016 28V10.312H173.912L179.864 20.92V10.312H184.04V28H179.864L174.056 17.632H173.192V28H169.016ZM187.391 28V10.312H198.935L202.607 13.984V24.328L198.935 28H187.391ZM191.879 24.592H196.991L198.263 23.32V14.992L196.991 13.72H191.879V24.592Z" fill="#0075FF"/>
<path d="M82.1477 45V33.3636H84.2557V38.2898H89.6477V33.3636H91.7614V45H89.6477V40.0568H84.2557V45H82.1477ZM97.9299 45.1705C97.0776 45.1705 96.339 44.983 95.714 44.608C95.089 44.233 94.6041 43.7083 94.2594 43.0341C93.9185 42.3598 93.7481 41.572 93.7481 40.6705C93.7481 39.7689 93.9185 38.9792 94.2594 38.3011C94.6041 37.6231 95.089 37.0966 95.714 36.7216C96.339 36.3466 97.0776 36.1591 97.9299 36.1591C98.7822 36.1591 99.5208 36.3466 100.146 36.7216C100.771 37.0966 101.254 37.6231 101.595 38.3011C101.939 38.9792 102.112 39.7689 102.112 40.6705C102.112 41.572 101.939 42.3598 101.595 43.0341C101.254 43.7083 100.771 44.233 100.146 44.608C99.5208 44.983 98.7822 45.1705 97.9299 45.1705ZM97.9412 43.5227C98.4034 43.5227 98.7897 43.3958 99.1003 43.142C99.4109 42.8845 99.642 42.5398 99.7935 42.108C99.9488 41.6761 100.026 41.1951 100.026 40.6648C100.026 40.1307 99.9488 39.6477 99.7935 39.2159C99.642 38.7803 99.4109 38.4337 99.1003 38.1761C98.7897 37.9186 98.4034 37.7898 97.9412 37.7898C97.4678 37.7898 97.0738 37.9186 96.7594 38.1761C96.4488 38.4337 96.2159 38.7803 96.0606 39.2159C95.9091 39.6477 95.8333 40.1307 95.8333 40.6648C95.8333 41.1951 95.9091 41.6761 96.0606 42.108C96.2159 42.5398 96.4488 42.8845 96.7594 43.142C97.0738 43.3958 97.4678 43.5227 97.9412 43.5227ZM110.915 38.5795L109.04 38.7841C108.987 38.5947 108.894 38.4167 108.762 38.25C108.633 38.0833 108.459 37.9489 108.239 37.8466C108.019 37.7443 107.75 37.6932 107.432 37.6932C107.004 37.6932 106.644 37.786 106.353 37.9716C106.065 38.1572 105.923 38.3977 105.927 38.6932C105.923 38.947 106.016 39.1534 106.205 39.3125C106.398 39.4716 106.716 39.6023 107.159 39.7045L108.648 40.0227C109.474 40.2008 110.088 40.483 110.489 40.8693C110.894 41.2557 111.099 41.7614 111.103 42.3864C111.099 42.9356 110.938 43.4205 110.62 43.8409C110.305 44.2576 109.868 44.5833 109.307 44.8182C108.747 45.053 108.103 45.1705 107.375 45.1705C106.307 45.1705 105.447 44.947 104.796 44.5C104.144 44.0492 103.756 43.4223 103.631 42.6193L105.637 42.4261C105.728 42.8201 105.921 43.1174 106.216 43.3182C106.512 43.5189 106.896 43.6193 107.37 43.6193C107.858 43.6193 108.25 43.5189 108.546 43.3182C108.845 43.1174 108.995 42.8693 108.995 42.5739C108.995 42.3239 108.898 42.1174 108.705 41.9545C108.516 41.7917 108.22 41.6667 107.819 41.5795L106.33 41.267C105.493 41.0928 104.874 40.7992 104.472 40.3864C104.07 39.9697 103.872 39.4432 103.875 38.8068C103.872 38.2689 104.017 37.803 104.313 37.4091C104.612 37.0114 105.027 36.7045 105.557 36.4886C106.091 36.2689 106.707 36.1591 107.404 36.1591C108.427 36.1591 109.231 36.3769 109.819 36.8125C110.409 37.2481 110.775 37.8371 110.915 38.5795ZM117.317 36.2727V37.8636H112.3V36.2727H117.317ZM113.538 34.1818H115.595V42.375C115.595 42.6515 115.637 42.8636 115.72 43.0114C115.807 43.1553 115.921 43.2538 116.061 43.3068C116.201 43.3598 116.356 43.3864 116.527 43.3864C116.656 43.3864 116.773 43.3769 116.879 43.358C116.989 43.339 117.072 43.322 117.129 43.3068L117.476 44.9148C117.366 44.9527 117.209 44.9943 117.004 45.0398C116.803 45.0852 116.557 45.1117 116.266 45.1193C115.75 45.1345 115.286 45.0568 114.873 44.8864C114.461 44.7121 114.133 44.4432 113.891 44.0795C113.652 43.7159 113.534 43.2614 113.538 42.7159V34.1818ZM122.967 45.1705C122.092 45.1705 121.336 44.9886 120.7 44.625C120.067 44.2576 119.58 43.7386 119.239 43.0682C118.899 42.3939 118.728 41.6004 118.728 40.6875C118.728 39.7898 118.899 39.0019 119.239 38.3239C119.584 37.642 120.065 37.1117 120.683 36.733C121.3 36.3504 122.025 36.1591 122.859 36.1591C123.397 36.1591 123.904 36.2462 124.381 36.4205C124.863 36.5909 125.287 36.8561 125.654 37.2159C126.025 37.5758 126.317 38.0341 126.529 38.5909C126.741 39.1439 126.847 39.803 126.847 40.5682V41.1989H119.694V39.8125H124.876C124.872 39.4186 124.787 39.0682 124.62 38.7614C124.453 38.4508 124.22 38.2064 123.921 38.0284C123.626 37.8504 123.281 37.7614 122.887 37.7614C122.467 37.7614 122.097 37.8636 121.779 38.0682C121.461 38.2689 121.213 38.5341 121.035 38.8636C120.861 39.1894 120.772 39.5473 120.768 39.9375V41.1477C120.768 41.6553 120.861 42.0909 121.046 42.4545C121.232 42.8144 121.491 43.0909 121.825 43.2841C122.158 43.4735 122.548 43.5682 122.995 43.5682C123.294 43.5682 123.565 43.5265 123.808 43.4432C124.05 43.3561 124.26 43.2292 124.438 43.0625C124.616 42.8958 124.751 42.6894 124.842 42.4432L126.762 42.6591C126.641 43.1667 126.41 43.6098 126.069 43.9886C125.732 44.3636 125.3 44.6553 124.774 44.8636C124.247 45.0682 123.645 45.1705 122.967 45.1705ZM131.986 45.1534C131.3 45.1534 130.687 44.9773 130.145 44.625C129.604 44.2727 129.175 43.7614 128.861 43.0909C128.547 42.4205 128.389 41.6061 128.389 40.6477C128.389 39.678 128.549 38.8598 128.867 38.1932C129.189 37.5227 129.622 37.017 130.168 36.6761C130.713 36.3314 131.321 36.1591 131.992 36.1591C132.503 36.1591 132.924 36.2462 133.253 36.4205C133.583 36.5909 133.844 36.7973 134.037 37.0398C134.23 37.2784 134.38 37.5038 134.486 37.7159H134.571V33.3636H136.634V45H134.611V43.625H134.486C134.38 43.8371 134.227 44.0625 134.026 44.3011C133.825 44.536 133.56 44.7367 133.23 44.9034C132.901 45.0701 132.486 45.1534 131.986 45.1534ZM132.56 43.4659C132.996 43.4659 133.367 43.3485 133.674 43.1136C133.98 42.875 134.213 42.5436 134.372 42.1193C134.532 41.6951 134.611 41.2008 134.611 40.6364C134.611 40.072 134.532 39.5814 134.372 39.1648C134.217 38.7481 133.986 38.4242 133.679 38.1932C133.376 37.9621 133.003 37.8466 132.56 37.8466C132.102 37.8466 131.719 37.9659 131.412 38.2045C131.105 38.4432 130.874 38.7727 130.719 39.1932C130.564 39.6136 130.486 40.0947 130.486 40.6364C130.486 41.1818 130.564 41.6686 130.719 42.0966C130.878 42.5208 131.111 42.8561 131.418 43.1023C131.729 43.3447 132.109 43.4659 132.56 43.4659ZM147.535 36.2727V37.8636H142.376V36.2727H147.535ZM143.665 45V35.4489C143.665 34.8617 143.787 34.3731 144.029 33.983C144.275 33.5928 144.605 33.3011 145.018 33.108C145.431 32.9148 145.889 32.8182 146.393 32.8182C146.749 32.8182 147.065 32.8466 147.342 32.9034C147.618 32.9602 147.823 33.0114 147.955 33.0568L147.546 34.6477C147.459 34.6212 147.349 34.5947 147.217 34.5682C147.084 34.5379 146.936 34.5227 146.773 34.5227C146.391 34.5227 146.12 34.6155 145.961 34.8011C145.806 34.983 145.728 35.2443 145.728 35.5852V45H143.665ZM151.52 45.1761C150.967 45.1761 150.469 45.0777 150.026 44.8807C149.586 44.6799 149.238 44.3845 148.98 43.9943C148.726 43.6042 148.6 43.1231 148.6 42.5511C148.6 42.0587 148.691 41.6515 148.872 41.3295C149.054 41.0076 149.302 40.75 149.617 40.5568C149.931 40.3636 150.285 40.2178 150.679 40.1193C151.077 40.017 151.488 39.9432 151.912 39.8977C152.423 39.8447 152.838 39.7973 153.156 39.7557C153.475 39.7102 153.706 39.642 153.85 39.5511C153.997 39.4564 154.071 39.3106 154.071 39.1136V39.0795C154.071 38.6515 153.944 38.3201 153.691 38.0852C153.437 37.8504 153.071 37.733 152.594 37.733C152.09 37.733 151.691 37.8428 151.395 38.0625C151.103 38.2822 150.906 38.5417 150.804 38.8409L148.884 38.5682C149.035 38.0379 149.285 37.5947 149.634 37.2386C149.982 36.8788 150.408 36.6098 150.912 36.4318C151.416 36.25 151.973 36.1591 152.583 36.1591C153.003 36.1591 153.422 36.2083 153.838 36.3068C154.255 36.4053 154.636 36.5682 154.98 36.7955C155.325 37.0189 155.601 37.3239 155.81 37.7102C156.022 38.0966 156.128 38.5795 156.128 39.1591V45H154.151V43.8011H154.083C153.958 44.0436 153.781 44.2708 153.554 44.483C153.331 44.6913 153.048 44.8598 152.708 44.9886C152.37 45.1136 151.975 45.1761 151.52 45.1761ZM152.054 43.6648C152.467 43.6648 152.825 43.5833 153.128 43.4205C153.431 43.2538 153.664 43.0341 153.827 42.7614C153.994 42.4886 154.077 42.1913 154.077 41.8693V40.8409C154.012 40.8939 153.903 40.9432 153.747 40.9886C153.596 41.0341 153.425 41.0739 153.236 41.108C153.047 41.142 152.859 41.1723 152.673 41.1989C152.488 41.2254 152.327 41.2481 152.191 41.267C151.884 41.3087 151.609 41.3769 151.367 41.4716C151.124 41.5663 150.933 41.6989 150.793 41.8693C150.653 42.036 150.583 42.2519 150.583 42.517C150.583 42.8958 150.721 43.1818 150.997 43.375C151.274 43.5682 151.626 43.6648 152.054 43.6648ZM160.231 42.2614L160.226 39.7784H160.555L163.691 36.2727H166.095L162.237 40.5682H161.811L160.231 42.2614ZM158.356 45V33.3636H160.413V45H158.356ZM163.833 45L160.993 41.0284L162.379 39.5795L166.294 45H163.833ZM171.13 45.1705C170.255 45.1705 169.499 44.9886 168.863 44.625C168.23 44.2576 167.743 43.7386 167.403 43.0682C167.062 42.3939 166.891 41.6004 166.891 40.6875C166.891 39.7898 167.062 39.0019 167.403 38.3239C167.747 37.642 168.228 37.1117 168.846 36.733C169.463 36.3504 170.189 36.1591 171.022 36.1591C171.56 36.1591 172.067 36.2462 172.545 36.4205C173.026 36.5909 173.45 36.8561 173.817 37.2159C174.189 37.5758 174.48 38.0341 174.692 38.5909C174.904 39.1439 175.011 39.803 175.011 40.5682V41.1989H167.857V39.8125H173.039C173.035 39.4186 172.95 39.0682 172.783 38.7614C172.617 38.4508 172.384 38.2064 172.084 38.0284C171.789 37.8504 171.444 37.7614 171.05 37.7614C170.63 37.7614 170.261 37.8636 169.942 38.0682C169.624 38.2689 169.376 38.5341 169.198 38.8636C169.024 39.1894 168.935 39.5473 168.931 39.9375V41.1477C168.931 41.6553 169.024 42.0909 169.209 42.4545C169.395 42.8144 169.654 43.0909 169.988 43.2841C170.321 43.4735 170.711 43.5682 171.158 43.5682C171.457 43.5682 171.728 43.5265 171.971 43.4432C172.213 43.3561 172.423 43.2292 172.601 43.0625C172.779 42.8958 172.914 42.6894 173.005 42.4432L174.925 42.6591C174.804 43.1667 174.573 43.6098 174.232 43.9886C173.895 44.3636 173.463 44.6553 172.937 44.8636C172.41 45.0682 171.808 45.1705 171.13 45.1705ZM182.625 45H180.375L184.471 33.3636H187.073L191.176 45H188.926L185.818 35.75H185.727L182.625 45ZM182.698 40.4375H188.835V42.1307H182.698V40.4375ZM192.868 45V33.3636H197.232C198.126 33.3636 198.876 33.5303 199.482 33.8636C200.092 34.197 200.552 34.6553 200.863 35.2386C201.177 35.8182 201.334 36.4773 201.334 37.2159C201.334 37.9621 201.177 38.625 200.863 39.2045C200.548 39.7841 200.084 40.2405 199.471 40.5739C198.857 40.9034 198.101 41.0682 197.204 41.0682H194.312V39.3352H196.919C197.442 39.3352 197.87 39.2443 198.204 39.0625C198.537 38.8807 198.783 38.6307 198.942 38.3125C199.105 37.9943 199.187 37.6288 199.187 37.2159C199.187 36.803 199.105 36.4394 198.942 36.125C198.783 35.8106 198.535 35.5663 198.198 35.392C197.865 35.214 197.435 35.125 196.908 35.125H194.976V45H192.868ZM205.433 33.3636V45H203.325V33.3636H205.433ZM82.1477 62V50.3636H86.5114C87.4053 50.3636 88.1553 50.5189 88.7614 50.8295C89.3712 51.1402 89.8314 51.5758 90.142 52.1364C90.4564 52.6932 90.6136 53.3428 90.6136 54.0852C90.6136 54.8314 90.4545 55.4792 90.1364 56.0284C89.822 56.5739 89.358 56.9962 88.7443 57.2955C88.1307 57.5909 87.3769 57.7386 86.483 57.7386H83.375V55.9886H86.1989C86.7216 55.9886 87.1496 55.9167 87.483 55.7727C87.8163 55.625 88.0625 55.411 88.2216 55.1307C88.3845 54.8466 88.4659 54.4981 88.4659 54.0852C88.4659 53.6723 88.3845 53.3201 88.2216 53.0284C88.0587 52.733 87.8106 52.5095 87.4773 52.358C87.1439 52.2027 86.714 52.125 86.1875 52.125H84.2557V62H82.1477ZM88.1591 56.7273L91.0398 62H88.6875L85.858 56.7273H88.1591ZM92.714 62V50.3636H100.282V52.1307H94.8219V55.2898H99.8901V57.0568H94.8219V60.233H100.328V62H92.714ZM108.917 53.5625C108.864 53.0663 108.64 52.6799 108.246 52.4034C107.856 52.1269 107.348 51.9886 106.723 51.9886C106.284 51.9886 105.907 52.0549 105.593 52.1875C105.278 52.3201 105.038 52.5 104.871 52.7273C104.704 52.9545 104.619 53.214 104.615 53.5057C104.615 53.7481 104.67 53.9583 104.78 54.1364C104.894 54.3144 105.047 54.4659 105.24 54.5909C105.434 54.7121 105.648 54.8144 105.882 54.8977C106.117 54.9811 106.354 55.0511 106.593 55.108L107.684 55.3807C108.123 55.483 108.545 55.6212 108.951 55.7955C109.36 55.9697 109.725 56.1894 110.047 56.4545C110.373 56.7197 110.631 57.0398 110.82 57.4148C111.009 57.7898 111.104 58.2292 111.104 58.733C111.104 59.4148 110.93 60.0152 110.581 60.5341C110.233 61.0492 109.729 61.4527 109.07 61.7443C108.415 62.0322 107.621 62.1761 106.689 62.1761C105.784 62.1761 104.998 62.036 104.331 61.7557C103.668 61.4754 103.15 61.0663 102.775 60.5284C102.403 59.9905 102.203 59.3352 102.172 58.5625H104.246C104.276 58.9678 104.401 59.3049 104.621 59.5739C104.841 59.8428 105.127 60.0436 105.479 60.1761C105.835 60.3087 106.233 60.375 106.672 60.375C107.131 60.375 107.532 60.3068 107.877 60.1705C108.225 60.0303 108.498 59.8371 108.695 59.5909C108.892 59.3409 108.992 59.0492 108.996 58.7159C108.992 58.4129 108.903 58.1629 108.729 57.9659C108.555 57.7652 108.311 57.5985 107.996 57.4659C107.686 57.3295 107.322 57.2083 106.905 57.1023L105.581 56.7614C104.623 56.5152 103.865 56.142 103.309 55.642C102.756 55.1383 102.479 54.4697 102.479 53.6364C102.479 52.9508 102.665 52.3504 103.036 51.8352C103.411 51.3201 103.92 50.9205 104.564 50.6364C105.208 50.3485 105.937 50.2045 106.752 50.2045C107.578 50.2045 108.301 50.3485 108.922 50.6364C109.547 50.9205 110.038 51.3163 110.394 51.8239C110.75 52.3277 110.934 52.9072 110.945 53.5625H108.917ZM112.632 52.1307V50.3636H121.916V52.1307H118.319V62H116.229V52.1307H112.632ZM131.381 62.1705C130.586 62.1705 129.902 62.0265 129.33 61.7386C128.758 61.4508 128.317 61.0625 128.006 60.5739C127.699 60.0814 127.546 59.5265 127.546 58.9091C127.546 58.4432 127.64 58.0303 127.83 57.6705C128.023 57.3106 128.288 56.9773 128.625 56.6705C128.966 56.3636 129.36 56.0587 129.807 55.7557L131.87 54.3523C132.173 54.1553 132.402 53.947 132.557 53.7273C132.716 53.5076 132.796 53.25 132.796 52.9545C132.796 52.7045 132.69 52.4678 132.478 52.2443C132.269 52.0208 131.981 51.9091 131.614 51.9091C131.368 51.9091 131.15 51.9678 130.961 52.0852C130.775 52.1989 130.629 52.3485 130.523 52.5341C130.421 52.7197 130.37 52.9167 130.37 53.125C130.37 53.3788 130.44 53.6364 130.58 53.8977C130.724 54.1591 130.909 54.4299 131.137 54.7102C131.368 54.9905 131.614 55.2879 131.875 55.6023L137.336 62H135.108L130.574 56.8068C130.237 56.4129 129.911 56.0246 129.597 55.642C129.286 55.2595 129.031 54.8617 128.83 54.4489C128.633 54.0322 128.534 53.5814 128.534 53.0966C128.534 52.5473 128.661 52.0568 128.915 51.625C129.169 51.1894 129.523 50.8466 129.978 50.5966C130.436 50.3466 130.972 50.2216 131.586 50.2216C132.199 50.2216 132.726 50.3428 133.165 50.5852C133.604 50.8277 133.943 51.1496 134.182 51.5511C134.421 51.9527 134.54 52.3902 134.54 52.8636C134.54 53.4129 134.404 53.9053 134.131 54.3409C133.858 54.7727 133.479 55.1648 132.995 55.517L130.642 57.2386C130.256 57.5189 129.979 57.803 129.813 58.0909C129.646 58.375 129.563 58.6174 129.563 58.8182C129.563 59.125 129.64 59.4034 129.796 59.6534C129.951 59.9034 130.169 60.1042 130.449 60.2557C130.733 60.4034 131.065 60.4773 131.443 60.4773C131.86 60.4773 132.271 60.3845 132.676 60.1989C133.082 60.0095 133.451 59.7405 133.784 59.392C134.118 59.0436 134.383 58.6269 134.58 58.142C134.777 57.6534 134.875 57.1117 134.875 56.517H136.642C136.642 57.2519 136.561 57.892 136.398 58.4375C136.235 58.9792 136.025 59.4375 135.767 59.8125C135.51 60.1837 135.237 60.4811 134.949 60.7045C134.858 60.7689 134.771 60.8333 134.688 60.8977C134.604 60.9621 134.517 61.0265 134.426 61.0909C134.017 61.4621 133.538 61.7348 132.989 61.9091C132.443 62.0833 131.907 62.1705 131.381 62.1705ZM150.688 54.0795C150.593 53.7727 150.463 53.4981 150.296 53.2557C150.133 53.0095 149.936 52.7992 149.705 52.625C149.478 52.4508 149.217 52.3201 148.921 52.233C148.626 52.142 148.304 52.0966 147.955 52.0966C147.33 52.0966 146.773 52.2538 146.285 52.5682C145.796 52.8826 145.412 53.3447 145.131 53.9545C144.855 54.5606 144.717 55.2992 144.717 56.1705C144.717 57.0492 144.855 57.7936 145.131 58.4034C145.408 59.0133 145.792 59.4773 146.285 59.7955C146.777 60.1098 147.349 60.267 148.001 60.267C148.592 60.267 149.103 60.1534 149.535 59.9261C149.97 59.6989 150.306 59.3769 150.54 58.9602C150.775 58.5398 150.893 58.0473 150.893 57.483L151.37 57.5568H148.211V55.9091H152.932V57.3068C152.932 58.303 152.72 59.1648 152.296 59.892C151.872 60.6193 151.289 61.1799 150.546 61.5739C149.804 61.964 148.951 62.1591 147.989 62.1591C146.917 62.1591 145.976 61.9186 145.165 61.4375C144.359 60.9527 143.728 60.2652 143.273 59.375C142.823 58.4811 142.597 57.4205 142.597 56.1932C142.597 55.2538 142.73 54.4148 142.995 53.6761C143.264 52.9375 143.639 52.3106 144.12 51.7955C144.601 51.2765 145.165 50.8826 145.813 50.6136C146.461 50.3409 147.165 50.2045 147.927 50.2045C148.571 50.2045 149.171 50.2992 149.728 50.4886C150.285 50.6742 150.779 50.9394 151.211 51.2841C151.647 51.6288 152.004 52.0379 152.285 52.5114C152.565 52.9848 152.749 53.5076 152.836 54.0795H150.688ZM155.04 62V53.2727H157.034V54.7273H157.125C157.284 54.2235 157.557 53.8352 157.943 53.5625C158.334 53.286 158.779 53.1477 159.279 53.1477C159.392 53.1477 159.519 53.1534 159.659 53.1648C159.803 53.1723 159.923 53.1856 160.017 53.2045V55.0966C159.93 55.0663 159.792 55.0398 159.602 55.017C159.417 54.9905 159.237 54.9773 159.063 54.9773C158.688 54.9773 158.351 55.0587 158.051 55.2216C157.756 55.3807 157.523 55.6023 157.352 55.8864C157.182 56.1705 157.097 56.4981 157.097 56.8693V62H155.04ZM163.899 62.1761C163.346 62.1761 162.848 62.0777 162.404 61.8807C161.965 61.6799 161.617 61.3845 161.359 60.9943C161.105 60.6042 160.978 60.1231 160.978 59.5511C160.978 59.0587 161.069 58.6515 161.251 58.3295C161.433 58.0076 161.681 57.75 161.995 57.5568C162.31 57.3636 162.664 57.2178 163.058 57.1193C163.456 57.017 163.867 56.9432 164.291 56.8977C164.802 56.8447 165.217 56.7973 165.535 56.7557C165.853 56.7102 166.084 56.642 166.228 56.5511C166.376 56.4564 166.45 56.3106 166.45 56.1136V56.0795C166.45 55.6515 166.323 55.3201 166.069 55.0852C165.815 54.8504 165.45 54.733 164.973 54.733C164.469 54.733 164.069 54.8428 163.774 55.0625C163.482 55.2822 163.285 55.5417 163.183 55.8409L161.262 55.5682C161.414 55.0379 161.664 54.5947 162.012 54.2386C162.361 53.8788 162.787 53.6098 163.291 53.4318C163.795 53.25 164.351 53.1591 164.961 53.1591C165.382 53.1591 165.8 53.2083 166.217 53.3068C166.634 53.4053 167.014 53.5682 167.359 53.7955C167.704 54.0189 167.98 54.3239 168.189 54.7102C168.401 55.0966 168.507 55.5795 168.507 56.1591V62H166.529V60.8011H166.461C166.336 61.0436 166.16 61.2708 165.933 61.483C165.709 61.6913 165.427 61.8598 165.086 61.9886C164.749 62.1136 164.353 62.1761 163.899 62.1761ZM164.433 60.6648C164.846 60.6648 165.204 60.5833 165.507 60.4205C165.81 60.2538 166.043 60.0341 166.206 59.7614C166.372 59.4886 166.456 59.1913 166.456 58.8693V57.8409C166.391 57.8939 166.281 57.9432 166.126 57.9886C165.975 58.0341 165.804 58.0739 165.615 58.108C165.425 58.142 165.238 58.1723 165.052 58.1989C164.867 58.2254 164.706 58.2481 164.569 58.267C164.262 58.3087 163.988 58.3769 163.745 58.4716C163.503 58.5663 163.312 58.6989 163.172 58.8693C163.031 59.036 162.961 59.2519 162.961 59.517C162.961 59.8958 163.1 60.1818 163.376 60.375C163.653 60.5682 164.005 60.6648 164.433 60.6648ZM170.735 65.2727V53.2727H172.758V54.7159H172.877C172.983 54.5038 173.133 54.2784 173.326 54.0398C173.519 53.7973 173.78 53.5909 174.11 53.4205C174.439 53.2462 174.86 53.1591 175.371 53.1591C176.046 53.1591 176.654 53.3314 177.195 53.6761C177.741 54.017 178.172 54.5227 178.491 55.1932C178.813 55.8598 178.974 56.678 178.974 57.6477C178.974 58.6061 178.816 59.4205 178.502 60.0909C178.188 60.7614 177.76 61.2727 177.218 61.625C176.676 61.9773 176.063 62.1534 175.377 62.1534C174.877 62.1534 174.462 62.0701 174.133 61.9034C173.803 61.7367 173.538 61.536 173.337 61.3011C173.14 61.0625 172.987 60.8371 172.877 60.625H172.792V65.2727H170.735ZM172.752 57.6364C172.752 58.2008 172.832 58.6951 172.991 59.1193C173.154 59.5436 173.386 59.875 173.689 60.1136C173.996 60.3485 174.368 60.4659 174.803 60.4659C175.258 60.4659 175.638 60.3447 175.945 60.1023C176.252 59.8561 176.483 59.5208 176.638 59.0966C176.797 58.6686 176.877 58.1818 176.877 57.6364C176.877 57.0947 176.799 56.6136 176.644 56.1932C176.489 55.7727 176.258 55.4432 175.951 55.2045C175.644 54.9659 175.261 54.8466 174.803 54.8466C174.364 54.8466 173.991 54.9621 173.684 55.1932C173.377 55.4242 173.144 55.7481 172.985 56.1648C172.83 56.5814 172.752 57.072 172.752 57.6364ZM182.952 56.8864V62H180.895V50.3636H182.906V54.7557H183.009C183.213 54.2633 183.529 53.875 183.957 53.5909C184.389 53.303 184.939 53.1591 185.605 53.1591C186.211 53.1591 186.74 53.286 187.19 53.5398C187.641 53.7936 187.99 54.1648 188.236 54.6534C188.486 55.142 188.611 55.7386 188.611 56.4432V62H186.554V56.7614C186.554 56.1742 186.403 55.7178 186.099 55.392C185.8 55.0625 185.38 54.8977 184.838 54.8977C184.474 54.8977 184.149 54.9773 183.861 55.1364C183.577 55.2917 183.353 55.517 183.19 55.8125C183.031 56.108 182.952 56.4659 182.952 56.8864ZM195.294 58.0909H197.203L198.333 59.5568L199.14 60.5114L201.078 63H199.032L197.714 61.3295L197.152 60.5341L195.294 58.0909ZM201.356 56.1818C201.356 57.4356 201.121 58.5095 200.652 59.4034C200.186 60.2936 199.549 60.9754 198.742 61.4489C197.939 61.9223 197.028 62.1591 196.009 62.1591C194.991 62.1591 194.078 61.9223 193.271 61.4489C192.468 60.9716 191.831 60.2879 191.362 59.3977C190.896 58.5038 190.663 57.4318 190.663 56.1818C190.663 54.928 190.896 53.8561 191.362 52.9659C191.831 52.072 192.468 51.3883 193.271 50.9148C194.078 50.4413 194.991 50.2045 196.009 50.2045C197.028 50.2045 197.939 50.4413 198.742 50.9148C199.549 51.3883 200.186 52.072 200.652 52.9659C201.121 53.8561 201.356 54.928 201.356 56.1818ZM199.237 56.1818C199.237 55.2992 199.099 54.5549 198.822 53.9489C198.549 53.339 198.17 52.8788 197.686 52.5682C197.201 52.2538 196.642 52.0966 196.009 52.0966C195.377 52.0966 194.818 52.2538 194.333 52.5682C193.849 52.8788 193.468 53.339 193.191 53.9489C192.919 54.5549 192.782 55.2992 192.782 56.1818C192.782 57.0644 192.919 57.8106 193.191 58.4205C193.468 59.0265 193.849 59.4867 194.333 59.8011C194.818 60.1117 195.377 60.267 196.009 60.267C196.642 60.267 197.201 60.1117 197.686 59.8011C198.17 59.4867 198.549 59.0265 198.822 58.4205C199.099 57.8106 199.237 57.0644 199.237 56.1818ZM203.525 62V50.3636H205.633V60.233H210.758V62H203.525Z" fill="#356CAD"/>
<defs>
<linearGradient id="paint0_linear_6_1" x1="35" y1="0" x2="35" y2="70" gradientUnits="userSpaceOnUse">
<stop stop-color="#FF96E8"/>
<stop offset="1" stop-color="#88C4FC"/>
</linearGradient>
</defs>
</svg>
